<svg width="175" height="53" viewBox="0 0 175 53" fill="none" xmlns="http://www.w3.org/2000/svg">
<g clip-path="url(#clip0_0_685)">
<rect width="175" height="53" rx="4" fill="#FF9900"/>
<path d="M49.448 25.32C49.2453 24.9467 48.952 24.664 48.568 24.472C48.1947 24.2693 47.752 24.168 47.24 24.168C46.3547 24.168 45.6453 24.4613 45.112 25.048C44.5787 25.624 44.312 26.3973 44.312 27.368C44.312 28.4027 44.5893 29.2133 45.144 29.8C45.7093 30.376 46.4827 30.664 47.464 30.664C48.136 30.664 48.7013 30.4933 49.16 30.152C49.6293 29.8107 49.9707 29.32 50.184 28.68H46.712V26.664H52.664V29.208C52.4613 29.8907 52.1147 30.5253 51.624 31.112C51.144 31.6987 50.5307 32.1733 49.784 32.536C49.0373 32.8987 48.1947 33.08 47.256 33.08C46.1467 33.08 45.1547 32.84 44.28 32.36C43.416 31.8693 42.7387 31.192 42.248 30.328C41.768 29.464 41.528 28.4773 41.528 27.368C41.528 26.2587 41.768 25.272 42.248 24.408C42.7387 23.5333 43.416 22.856 44.28 22.376C45.144 21.8853 46.1307 21.64 47.24 21.64C48.584 21.64 49.7147 21.9653 50.632 22.616C51.56 23.2667 52.1733 24.168 52.472 25.32H49.448ZM62.5955 28.392C62.5955 28.648 62.5795 28.9147 62.5475 29.192H56.3555C56.3982 29.7467 56.5742 30.1733 56.8835 30.472C57.2035 30.76 57.5928 30.904 58.0515 30.904C58.7342 30.904 59.2088 30.616 59.4755 30.04H62.3875C62.2382 30.6267 61.9662 31.1547 61.5715 31.624C61.1875 32.0933 60.7022 32.4613 60.1155 32.728C59.5288 32.9947 58.8728 33.128 58.1475 33.128C57.2728 33.128 56.4942 32.9413 55.8115 32.568C55.1288 32.1947 54.5955 31.6613 54.2115 30.968C53.8275 30.2747 53.6355 29.464 53.6355 28.536C53.6355 27.608 53.8222 26.7973 54.1955 26.104C54.5795 25.4107 55.1128 24.8773 55.7955 24.504C56.4782 24.1307 57.2622 23.944 58.1475 23.944C59.0115 23.944 59.7795 24.1253 60.4515 24.488C61.1235 24.8507 61.6462 25.368 62.0195 26.04C62.4035 26.712 62.5955 27.496 62.5955 28.392ZM59.7955 27.672C59.7955 27.2027 59.6355 26.8293 59.3155 26.552C58.9955 26.2747 58.5955 26.136 58.1155 26.136C57.6568 26.136 57.2675 26.2693 56.9475 26.536C56.6382 26.8027 56.4462 27.1813 56.3715 27.672H59.7955ZM69.0149 30.68V33H67.6229C66.6309 33 65.8575 32.76 65.3029 32.28C64.7482 31.7893 64.4709 30.9947 64.4709 29.896V26.344H63.3829V24.072H64.4709V21.896H67.2069V24.072H68.9989V26.344H67.2069V29.928C67.2069 30.1947 67.2709 30.3867 67.3989 30.504C67.5269 30.6213 67.7402 30.68 68.0389 30.68H69.0149ZM77.5615 33.128C76.7828 33.128 76.0895 32.9947 75.4815 32.728C74.8735 32.4613 74.3935 32.0987 74.0415 31.64C73.6895 31.1707 73.4922 30.648 73.4495 30.072H76.1535C76.1855 30.3813 76.3295 30.632 76.5855 30.824C76.8415 31.016 77.1562 31.112 77.5295 31.112C77.8708 31.112 78.1322 31.048 78.3135 30.92C78.5055 30.7813 78.6015 30.6053 78.6015 30.392C78.6015 30.136 78.4682 29.9493 78.2015 29.832C77.9348 29.704 77.5028 29.5653 76.9055 29.416C76.2655 29.2667 75.7322 29.112 75.3055 28.952C74.8788 28.7813 74.5108 28.52 74.2015 28.168C73.8922 27.8053 73.7375 27.32 73.7375 26.712C73.7375 26.2 73.8762 25.736 74.1535 25.32C74.4415 24.8933 74.8575 24.5573 75.4015 24.312C75.9562 24.0667 76.6122 23.944 77.3695 23.944C78.4895 23.944 79.3695 24.2213 80.0095 24.776C80.6602 25.3307 81.0335 26.0667 81.1295 26.984H78.6015C78.5588 26.6747 78.4202 26.4293 78.1855 26.248C77.9615 26.0667 77.6628 25.976 77.2895 25.976C76.9695 25.976 76.7242 26.04 76.5535 26.168C76.3828 26.2853 76.2975 26.4507 76.2975 26.664C76.2975 26.92 76.4308 27.112 76.6975 27.24C76.9748 27.368 77.4015 27.496 77.9775 27.624C78.6388 27.7947 79.1775 27.9653 79.5935 28.136C80.0095 28.296 80.3722 28.5627 80.6815 28.936C81.0015 29.2987 81.1668 29.7893 81.1775 30.408C81.1775 30.9307 81.0282 31.4 80.7295 31.816C80.4415 32.2213 80.0202 32.5413 79.4655 32.776C78.9215 33.0107 78.2868 33.128 77.5615 33.128ZM87.8274 30.68V33H86.4354C85.4434 33 84.67 32.76 84.1154 32.28C83.5607 31.7893 83.2834 30.9947 83.2834 29.896V26.344H82.1954V24.072H83.2834V21.896H86.0194V24.072H87.8114V26.344H86.0194V29.928C86.0194 30.1947 86.0834 30.3867 86.2114 30.504C86.3394 30.6213 86.5527 30.68 86.8514 30.68H87.8274ZM88.8074 28.52C88.8074 27.6027 88.978 26.7973 89.3194 26.104C89.6714 25.4107 90.146 24.8773 90.7434 24.504C91.3407 24.1307 92.0074 23.944 92.7434 23.944C93.3727 23.944 93.922 24.072 94.3914 24.328C94.8714 24.584 95.2394 24.92 95.4954 25.336V24.072H98.2314V33H95.4954V31.736C95.2287 32.152 94.8554 32.488 94.3754 32.744C93.906 33 93.3567 33.128 92.7274 33.128C92.002 33.128 91.3407 32.9413 90.7434 32.568C90.146 32.184 89.6714 31.6453 89.3194 30.952C88.978 30.248 88.8074 29.4373 88.8074 28.52ZM95.4954 28.536C95.4954 27.8533 95.3034 27.3147 94.9194 26.92C94.546 26.5253 94.0874 26.328 93.5434 26.328C92.9994 26.328 92.5354 26.5253 92.1514 26.92C91.778 27.304 91.5914 27.8373 91.5914 28.52C91.5914 29.2027 91.778 29.7467 92.1514 30.152C92.5354 30.5467 92.9994 30.744 93.5434 30.744C94.0874 30.744 94.546 30.5467 94.9194 30.152C95.3034 29.7573 95.4954 29.2187 95.4954 28.536ZM102.947 25.56C103.267 25.0693 103.667 24.6853 104.147 24.408C104.627 24.12 105.16 23.976 105.747 23.976V26.872H104.995C104.312 26.872 103.8 27.0213 103.459 27.32C103.117 27.608 102.947 28.12 102.947 28.856V33H100.211V24.072H102.947V25.56ZM112.031 30.68V33H110.639C109.647 33 108.873 32.76 108.319 32.28C107.764 31.7893 107.487 30.9947 107.487 29.896V26.344H106.399V24.072H107.487V21.896H110.223V24.072H112.015V26.344H110.223V29.928C110.223 30.1947 110.287 30.3867 110.415 30.504C110.543 30.6213 110.756 30.68 111.055 30.68H112.031ZM121.97 28.392C121.97 28.648 121.955 28.9147 121.923 29.192H115.731C115.773 29.7467 115.949 30.1733 116.259 30.472C116.579 30.76 116.968 30.904 117.427 30.904C118.109 30.904 118.584 30.616 118.851 30.04H121.763C121.613 30.6267 121.341 31.1547 120.947 31.624C120.563 32.0933 120.077 32.4613 119.491 32.728C118.904 32.9947 118.248 33.128 117.523 33.128C116.648 33.128 115.869 32.9413 115.187 32.568C114.504 32.1947 113.971 31.6613 113.587 30.968C113.203 30.2747 113.011 29.464 113.011 28.536C113.011 27.608 113.197 26.7973 113.571 26.104C113.955 25.4107 114.488 24.8773 115.171 24.504C115.853 24.1307 116.637 23.944 117.523 23.944C118.387 23.944 119.155 24.1253 119.827 24.488C120.499 24.8507 121.021 25.368 121.395 26.04C121.779 26.712 121.97 27.496 121.97 28.392ZM119.171 27.672C119.171 27.2027 119.011 26.8293 118.691 26.552C118.371 26.2747 117.971 26.136 117.491 26.136C117.032 26.136 116.643 26.2693 116.323 26.536C116.013 26.8027 115.821 27.1813 115.747 27.672H119.171ZM122.87 28.52C122.87 27.6027 123.041 26.7973 123.382 26.104C123.734 25.4107 124.209 24.8773 124.806 24.504C125.403 24.1307 126.07 23.944 126.806 23.944C127.393 23.944 127.926 24.0667 128.406 24.312C128.897 24.5573 129.281 24.888 129.558 25.304V21.16H132.294V33H129.558V31.72C129.302 32.1467 128.934 32.488 128.454 32.744C127.985 33 127.435 33.128 126.806 33.128C126.07 33.128 125.403 32.9413 124.806 32.568C124.209 32.184 123.734 31.6453 123.382 30.952C123.041 30.248 122.87 29.4373 122.87 28.52ZM129.558 28.536C129.558 27.8533 129.366 27.3147 128.982 26.92C128.609 26.5253 128.15 26.328 127.606 26.328C127.062 26.328 126.598 26.5253 126.214 26.92C125.841 27.304 125.654 27.8373 125.654 28.52C125.654 29.2027 125.841 29.7467 126.214 30.152C126.598 30.5467 127.062 30.744 127.606 30.744C128.15 30.744 128.609 30.5467 128.982 30.152C129.366 29.7573 129.558 29.2187 129.558 28.536Z" fill="white"/>
</g>
<defs>
<clipPath id="clip0_0_685">
<rect width="175" height="53" fill="white"/>
</clipPath>
</defs>
</svg>
