<svg width="175" height="53" viewBox="0 0 175 53" fill="none" xmlns="http://www.w3.org/2000/svg">
<g clip-path="url(#clip0_0_536)">
<rect width="175" height="53" rx="4" fill="#FF9900"/>
<path d="M39.056 33.112C38.2347 33.112 37.4987 32.9787 36.848 32.712C36.1973 32.4453 35.6747 32.0507 35.28 31.528C34.896 31.0053 34.6933 30.376 34.672 29.64H37.584C37.6267 30.056 37.7707 30.376 38.016 30.6C38.2613 30.8133 38.5813 30.92 38.976 30.92C39.3813 30.92 39.7013 30.8293 39.936 30.648C40.1707 30.456 40.288 30.1947 40.288 29.864C40.288 29.5867 40.192 29.3573 40 29.176C39.8187 28.9947 39.5893 28.8453 39.312 28.728C39.0453 28.6107 38.6613 28.4773 38.16 28.328C37.4347 28.104 36.8427 27.88 36.384 27.656C35.9253 27.432 35.5307 27.1013 35.2 26.664C34.8693 26.2267 34.704 25.656 34.704 24.952C34.704 23.9067 35.0827 23.0907 35.84 22.504C36.5973 21.9067 37.584 21.608 38.8 21.608C40.0373 21.608 41.0347 21.9067 41.792 22.504C42.5493 23.0907 42.9547 23.912 43.008 24.968H40.048C40.0267 24.6053 39.8933 24.3227 39.648 24.12C39.4027 23.9067 39.088 23.8 38.704 23.8C38.3733 23.8 38.1067 23.8907 37.904 24.072C37.7013 24.2427 37.6 24.4933 37.6 24.824C37.6 25.1867 37.7707 25.4693 38.112 25.672C38.4533 25.8747 38.9867 26.0933 39.712 26.328C40.4373 26.5733 41.024 26.808 41.472 27.032C41.9307 27.256 42.3253 27.5813 42.656 28.008C42.9867 28.4347 43.152 28.984 43.152 29.656C43.152 30.296 42.9867 30.8773 42.656 31.4C42.336 31.9227 41.8667 32.3387 41.248 32.648C40.6293 32.9573 39.8987 33.112 39.056 33.112ZM47.5718 21.768V33H44.8358V21.768H47.5718ZM57.0105 25.32C56.8078 24.9467 56.5145 24.664 56.1305 24.472C55.7572 24.2693 55.3145 24.168 54.8025 24.168C53.9172 24.168 53.2078 24.4613 52.6745 25.048C52.1412 25.624 51.8745 26.3973 51.8745 27.368C51.8745 28.4027 52.1518 29.2133 52.7065 29.8C53.2718 30.376 54.0452 30.664 55.0265 30.664C55.6985 30.664 56.2638 30.4933 56.7225 30.152C57.1918 29.8107 57.5332 29.32 57.7465 28.68H54.2745V26.664H60.2265V29.208C60.0238 29.8907 59.6772 30.5253 59.1865 31.112C58.7065 31.6987 58.0932 32.1733 57.3465 32.536C56.5998 32.8987 55.7572 33.08 54.8185 33.08C53.7092 33.08 52.7172 32.84 51.8425 32.36C50.9785 31.8693 50.3012 31.192 49.8105 30.328C49.3305 29.464 49.0905 28.4773 49.0905 27.368C49.0905 26.2587 49.3305 25.272 49.8105 24.408C50.3012 23.5333 50.9785 22.856 51.8425 22.376C52.7065 21.8853 53.6932 21.64 54.8025 21.64C56.1465 21.64 57.2772 21.9653 58.1945 22.616C59.1225 23.2667 59.7358 24.168 60.0345 25.32H57.0105ZM71.79 33H69.054L64.478 26.072V33H61.742V21.768H64.478L69.054 28.728V21.768H71.79V33ZM79.8519 21.768V28.488C79.8519 29.16 80.0172 29.6773 80.3479 30.04C80.6785 30.4027 81.1639 30.584 81.8039 30.584C82.4439 30.584 82.9345 30.4027 83.2759 30.04C83.6172 29.6773 83.7879 29.16 83.7879 28.488V21.768H86.5239V28.472C86.5239 29.4747 86.3105 30.3227 85.8839 31.016C85.4572 31.7093 84.8812 32.232 84.1559 32.584C83.4412 32.936 82.6412 33.112 81.7559 33.112C80.8705 33.112 80.0759 32.9413 79.3719 32.6C78.6785 32.248 78.1292 31.7253 77.7239 31.032C77.3185 30.328 77.1159 29.4747 77.1159 28.472V21.768H79.8519ZM97.0051 25.384C97.0051 26.0347 96.8558 26.632 96.5571 27.176C96.2585 27.7093 95.7998 28.1413 95.1811 28.472C94.5625 28.8027 93.7945 28.968 92.8771 28.968H91.1811V33H88.4451V21.768H92.8771C93.7731 21.768 94.5305 21.9227 95.1491 22.232C95.7678 22.5413 96.2318 22.968 96.5411 23.512C96.8505 24.056 97.0051 24.68 97.0051 25.384ZM92.6691 26.792C93.1918 26.792 93.5811 26.6693 93.8371 26.424C94.0931 26.1787 94.2211 25.832 94.2211 25.384C94.2211 24.936 94.0931 24.5893 93.8371 24.344C93.5811 24.0987 93.1918 23.976 92.6691 23.976H91.1811V26.792H92.6691ZM111.868 33H109.132L104.556 26.072V33H101.82V21.768H104.556L109.132 28.728V21.768H111.868V33ZM119.163 33.112C118.107 33.112 117.137 32.8667 116.251 32.376C115.377 31.8853 114.678 31.2027 114.155 30.328C113.643 29.4427 113.387 28.4507 113.387 27.352C113.387 26.2533 113.643 25.2667 114.155 24.392C114.678 23.5173 115.377 22.8347 116.251 22.344C117.137 21.8533 118.107 21.608 119.163 21.608C120.219 21.608 121.185 21.8533 122.059 22.344C122.945 22.8347 123.638 23.5173 124.139 24.392C124.651 25.2667 124.907 26.2533 124.907 27.352C124.907 28.4507 124.651 29.4427 124.139 30.328C123.627 31.2027 122.934 31.8853 122.059 32.376C121.185 32.8667 120.219 33.112 119.163 33.112ZM119.163 30.616C120.059 30.616 120.774 30.3173 121.307 29.72C121.851 29.1227 122.123 28.3333 122.123 27.352C122.123 26.36 121.851 25.5707 121.307 24.984C120.774 24.3867 120.059 24.088 119.163 24.088C118.257 24.088 117.531 24.3813 116.987 24.968C116.454 25.5547 116.187 26.3493 116.187 27.352C116.187 28.344 116.454 29.1387 116.987 29.736C117.531 30.3227 118.257 30.616 119.163 30.616ZM141.885 21.768L138.958 33H135.646L133.854 25.608L131.998 33H128.686L125.838 21.768H128.766L130.382 29.944L132.382 21.768H135.39L137.31 29.944L138.942 21.768H141.885Z" fill="white"/>
</g>
<defs>
<clipPath id="clip0_0_536">
<rect width="175" height="53" fill="white"/>
</clipPath>
</defs>
</svg>
