<svg width="131" height="39" viewBox="0 0 131 39" fill="none" xmlns="http://www.w3.org/2000/svg">
<g clip-path="url(#clip0_0_12)">
<rect width="131" height="39" rx="4" fill="#FF9900"/>
<path d="M20.2044 26.112C19.3831 26.112 18.6471 25.9787 17.9964 25.712C17.3458 25.4453 16.8231 25.0507 16.4284 24.528C16.0444 24.0053 15.8418 23.376 15.8204 22.64H18.7324C18.7751 23.056 18.9191 23.376 19.1644 23.6C19.4098 23.8133 19.7298 23.92 20.1244 23.92C20.5298 23.92 20.8498 23.8293 21.0844 23.648C21.3191 23.456 21.4364 23.1947 21.4364 22.864C21.4364 22.5867 21.3404 22.3573 21.1484 22.176C20.9671 21.9947 20.7378 21.8453 20.4604 21.728C20.1938 21.6107 19.8098 21.4773 19.3084 21.328C18.5831 21.104 17.9911 20.88 17.5324 20.656C17.0738 20.432 16.6791 20.1013 16.3484 19.664C16.0178 19.2267 15.8524 18.656 15.8524 17.952C15.8524 16.9067 16.2311 16.0907 16.9884 15.504C17.7458 14.9067 18.7324 14.608 19.9484 14.608C21.1858 14.608 22.1831 14.9067 22.9404 15.504C23.6978 16.0907 24.1031 16.912 24.1564 17.968H21.1964C21.1751 17.6053 21.0418 17.3227 20.7964 17.12C20.5511 16.9067 20.2364 16.8 19.8524 16.8C19.5218 16.8 19.2551 16.8907 19.0524 17.072C18.8498 17.2427 18.7484 17.4933 18.7484 17.824C18.7484 18.1867 18.9191 18.4693 19.2604 18.672C19.6018 18.8747 20.1351 19.0933 20.8604 19.328C21.5858 19.5733 22.1724 19.808 22.6204 20.032C23.0791 20.256 23.4738 20.5813 23.8044 21.008C24.1351 21.4347 24.3004 21.984 24.3004 22.656C24.3004 23.296 24.1351 23.8773 23.8044 24.4C23.4844 24.9227 23.0151 25.3387 22.3964 25.648C21.7778 25.9573 21.0471 26.112 20.2044 26.112ZM27.3602 16.144C26.8802 16.144 26.4855 16.0053 26.1762 15.728C25.8775 15.44 25.7282 15.088 25.7282 14.672C25.7282 14.2453 25.8775 13.8933 26.1762 13.616C26.4855 13.328 26.8802 13.184 27.3602 13.184C27.8295 13.184 28.2135 13.328 28.5122 13.616C28.8215 13.8933 28.9762 14.2453 28.9762 14.672C28.9762 15.088 28.8215 15.44 28.5122 15.728C28.2135 16.0053 27.8295 16.144 27.3602 16.144ZM28.7202 17.072V26H25.9842V17.072H28.7202ZM34.0949 16.944C34.7243 16.944 35.2736 17.072 35.7429 17.328C36.2229 17.584 36.5909 17.92 36.8469 18.336V17.072H39.5829V25.984C39.5829 26.8053 39.4176 27.5467 39.0869 28.208C38.7669 28.88 38.2709 29.4133 37.5989 29.808C36.9376 30.2027 36.1109 30.4 35.1189 30.4C33.7963 30.4 32.7243 30.0853 31.9029 29.456C31.0816 28.8373 30.6123 27.9947 30.4949 26.928H33.1989C33.2843 27.2693 33.4869 27.536 33.8069 27.728C34.1269 27.9307 34.5216 28.032 34.9909 28.032C35.5563 28.032 36.0043 27.8667 36.3349 27.536C36.6763 27.216 36.8469 26.6987 36.8469 25.984V24.72C36.5803 25.136 36.2123 25.4773 35.7429 25.744C35.2736 26 34.7243 26.128 34.0949 26.128C33.3589 26.128 32.6923 25.9413 32.0949 25.568C31.4976 25.184 31.0229 24.6453 30.6709 23.952C30.3296 23.248 30.1589 22.4373 30.1589 21.52C30.1589 20.6027 30.3296 19.7973 30.6709 19.104C31.0229 18.4107 31.4976 17.8773 32.0949 17.504C32.6923 17.1307 33.3589 16.944 34.0949 16.944ZM36.8469 21.536C36.8469 20.8533 36.6549 20.3147 36.2709 19.92C35.8976 19.5253 35.4389 19.328 34.8949 19.328C34.3509 19.328 33.8869 19.5253 33.5029 19.92C33.1296 20.304 32.9429 20.8373 32.9429 21.52C32.9429 22.2027 33.1296 22.7467 33.5029 23.152C33.8869 23.5467 34.3509 23.744 34.8949 23.744C35.4389 23.744 35.8976 23.5467 36.2709 23.152C36.6549 22.7573 36.8469 22.2187 36.8469 21.536ZM47.0023 16.976C48.0476 16.976 48.8796 17.3173 49.4983 18C50.1276 18.672 50.4423 19.6 50.4423 20.784V26H47.7223V21.152C47.7223 20.5547 47.5676 20.0907 47.2583 19.76C46.949 19.4293 46.533 19.264 46.0103 19.264C45.4876 19.264 45.0716 19.4293 44.7623 19.76C44.453 20.0907 44.2983 20.5547 44.2983 21.152V26H41.5623V17.072H44.2983V18.256C44.5756 17.8613 44.949 17.552 45.4183 17.328C45.8876 17.0933 46.4156 16.976 47.0023 16.976ZM64.5502 17.072V26H61.8142V24.784C61.5369 25.1787 61.1582 25.4987 60.6782 25.744C60.2089 25.9787 59.6862 26.096 59.1102 26.096C58.4275 26.096 57.8249 25.9467 57.3022 25.648C56.7795 25.3387 56.3742 24.896 56.0862 24.32C55.7982 23.744 55.6542 23.0667 55.6542 22.288V17.072H58.3742V21.92C58.3742 22.5173 58.5289 22.9813 58.8382 23.312C59.1475 23.6427 59.5635 23.808 60.0862 23.808C60.6195 23.808 61.0409 23.6427 61.3502 23.312C61.6595 22.9813 61.8142 22.5173 61.8142 21.92V17.072H64.5502ZM69.2514 18.336C69.5181 17.92 69.8861 17.584 70.3554 17.328C70.8248 17.072 71.3741 16.944 72.0034 16.944C72.7394 16.944 73.4061 17.1307 74.0034 17.504C74.6008 17.8773 75.0701 18.4107 75.4114 19.104C75.7634 19.7973 75.9394 20.6027 75.9394 21.52C75.9394 22.4373 75.7634 23.248 75.4114 23.952C75.0701 24.6453 74.6008 25.184 74.0034 25.568C73.4061 25.9413 72.7394 26.128 72.0034 26.128C71.3848 26.128 70.8354 26 70.3554 25.744C69.8861 25.488 69.5181 25.1573 69.2514 24.752V30.256H66.5154V17.072H69.2514V18.336ZM73.1554 21.52C73.1554 20.8373 72.9634 20.304 72.5794 19.92C72.2061 19.5253 71.7421 19.328 71.1874 19.328C70.6434 19.328 70.1794 19.5253 69.7954 19.92C69.4221 20.3147 69.2354 20.8533 69.2354 21.536C69.2354 22.2187 69.4221 22.7573 69.7954 23.152C70.1794 23.5467 70.6434 23.744 71.1874 23.744C71.7314 23.744 72.1954 23.5467 72.5794 23.152C72.9634 22.7467 73.1554 22.2027 73.1554 21.52ZM90.8134 26H88.0774L83.5014 19.072V26H80.7654V14.768H83.5014L88.0774 21.728V14.768H90.8134V26ZM96.8607 26.128C95.986 26.128 95.1967 25.9413 94.4927 25.568C93.7994 25.1947 93.25 24.6613 92.8447 23.968C92.45 23.2747 92.2527 22.464 92.2527 21.536C92.2527 20.6187 92.4554 19.8133 92.8607 19.12C93.266 18.416 93.8207 17.8773 94.5247 17.504C95.2287 17.1307 96.018 16.944 96.8927 16.944C97.7674 16.944 98.5567 17.1307 99.2607 17.504C99.9647 17.8773 100.519 18.416 100.925 19.12C101.33 19.8133 101.533 20.6187 101.533 21.536C101.533 22.4533 101.325 23.264 100.909 23.968C100.503 24.6613 99.9434 25.1947 99.2287 25.568C98.5247 25.9413 97.7354 26.128 96.8607 26.128ZM96.8607 23.76C97.3834 23.76 97.826 23.568 98.1887 23.184C98.562 22.8 98.7487 22.2507 98.7487 21.536C98.7487 20.8213 98.5674 20.272 98.2047 19.888C97.8527 19.504 97.4154 19.312 96.8927 19.312C96.3594 19.312 95.9167 19.504 95.5647 19.888C95.2127 20.2613 95.0367 20.8107 95.0367 21.536C95.0367 22.2507 95.2074 22.8 95.5487 23.184C95.9007 23.568 96.338 23.76 96.8607 23.76ZM115.8 17.072L113.384 26H110.36L108.952 20.208L107.496 26H104.488L102.056 17.072H104.792L106.056 23.456L107.56 17.072H110.456L111.976 23.424L113.224 17.072H115.8Z" fill="white"/>
</g>
<defs>
<clipPath id="clip0_0_12">
<rect width="131" height="39" fill="white"/>
</clipPath>
</defs>
</svg>
